M48
; DRILL file KiCad 10.0.4 date 2026-07-23T05:17:14
; FORMAT={-:-/ absolute / metric / decimal}
; #@! TF.CreationDate,2026-07-23T05:17:14+05:00
; #@! TF.GenerationSoftware,Kicad,Pcbnew,10.0.4
; #@! TF.FileFunction,Plated,1,2,PTH
FMAT,2
METRIC
; #@! TA.AperFunction,Plated,PTH,ViaDrill
T1C0.300
; #@! TA.AperFunction,Plated,PTH,ComponentDrill
T2C0.700
; #@! TA.AperFunction,Plated,PTH,ComponentDrill
T3C0.750
; #@! TA.AperFunction,Plated,PTH,ComponentDrill
T4C0.800
; #@! TA.AperFunction,Plated,PTH,ComponentDrill
T5C0.900
; #@! TA.AperFunction,Plated,PTH,ComponentDrill
T6C1.000
; #@! TA.AperFunction,Plated,PTH,ComponentDrill
T7C1.100
; #@! TA.AperFunction,Plated,PTH,ComponentDrill
T8C1.500
%
G90
G05
T1
X46.5Y-87.5
X47.0Y-68.5
X47.0Y-69.5
X47.15Y-78.5
X47.667Y-103.167
X48.5Y-70.5
X49.0Y-104.5
X50.308Y-100.808
X53.0Y-114.5
X55.0Y-79.0
X56.0Y-78.5
X56.0Y-94.0
X57.0Y-116.5
X57.5Y-118.5
X58.3Y-78.5
X58.3Y-93.5
X58.5Y-121.5
X59.0Y-91.5
X61.0Y-124.5
X63.9Y-87.5
X63.9Y-105.5
X65.0Y-63.5
X65.1Y-87.5
X65.5Y-105.0
X66.5Y-63.5
X68.249Y-127.81
X70.0Y-120.0
X70.0Y-125.5
X72.0Y-95.0
X72.0Y-97.0
X72.0Y-127.5
X74.0Y-118.0
X76.49Y-113.0
X79.0Y-107.0
X81.0Y-91.5
X81.4Y-92.984
X82.615Y-94.115
X84.0Y-93.0
X84.5Y-97.5
X84.5Y-99.73
X85.99Y-98.5
X86.19Y-93.0
X88.0Y-98.0
X92.5Y-90.5
X94.5Y-85.5
X97.5Y-82.75
X103.0Y-78.125
X103.0Y-85.5
X105.7Y-85.5
X106.449Y-89.449
X106.5Y-73.0
X106.5Y-80.444
X106.5Y-82.1
X106.547Y-91.047
X108.0Y-72.0
X108.31Y-105.5
X109.51Y-106.5
X110.5Y-84.0
X111.0Y-78.0
X111.0Y-80.0
X111.5Y-75.5
X111.5Y-115.0
X112.519Y-71.019
X112.893Y-78.607
X113.663Y-66.337
X114.556Y-79.5
X115.0Y-78.0
X116.0Y-131.0
X116.5Y-129.74
X117.0Y-87.5
X120.5Y-85.0
X121.0Y-96.69
X121.0Y-113.5
X121.5Y-95.0
X123.0Y-129.74
X124.0Y-131.0
X126.3Y-85.0
X126.5Y-132.0
X126.808Y-59.692
X128.0Y-84.5
X128.5Y-59.5
X131.0Y-112.8
X131.0Y-115.81
X131.5Y-127.0
X132.0Y-110.5
X133.12Y-126.5
X133.421Y-114.421
X133.5Y-109.4
X137.315Y-96.0
X137.5Y-102.0
X137.81Y-114.5
X139.01Y-113.0
X139.01Y-115.5
X140.136Y-99.97
X141.5Y-74.5
X142.5Y-118.5
X142.999Y-123.02
X144.5Y-52.5
X147.326Y-65.674
X148.0Y-88.0
X148.0Y-124.68
X148.421Y-79.579
X148.572Y-120.091
X148.619Y-77.381
X149.13Y-53.0
X149.348Y-118.323
X149.849Y-86.651
X150.0Y-109.5
X150.86Y-95.35
X151.315Y-74.23
X151.5Y-59.5
X151.5Y-109.5
X151.9Y-100.5
X152.0Y-121.5
X152.06Y-94.0
X152.5Y-61.0
X152.5Y-90.35
X152.5Y-91.55
X152.5Y-102.5
X152.5Y-105.0
X152.558Y-113.558
X152.671Y-83.829
X153.0Y-71.0
X153.0Y-115.0
X153.1Y-100.5
X153.44Y-85.863
X153.5Y-81.5
X153.5Y-91.55
X153.5Y-121.0
X154.0Y-124.39
X154.387Y-120.113
X154.485Y-71.485
X154.5Y-63.0
X155.949Y-65.949
X156.0Y-72.0
X156.315Y-111.5
X156.5Y-133.5
X159.4Y-86.5
X159.4Y-98.0
X159.515Y-113.5
X159.515Y-114.5
X159.515Y-114.5
X161.0Y-87.5
X161.0Y-99.0
X161.5Y-128.0
X162.0Y-117.0
X162.0Y-111.99
X162.5Y-84.46
X163.2Y-120.5
X163.5Y-112.0
X164.951Y-85.951
X165.19Y-87.549
X166.5Y-89.5
X166.609Y-92.109
X167.193Y-115.807
X168.5Y-82.5
X168.5Y-83.5
X168.5Y-110.0
X168.5Y-111.255
X168.71Y-85.0
X168.71Y-89.5
X169.91Y-83.0
X169.91Y-86.0
X169.91Y-89.5
X169.91Y-90.5
X170.0Y-85.0
X170.052Y-88.713
X170.453Y-107.047
X170.5Y-115.5
X171.052Y-105.948
X171.481Y-77.981
X171.9Y-59.0
X172.0Y-95.5
X172.5Y-82.5
X172.579Y-78.579
X173.1Y-59.5
X173.5Y-109.7
X173.7Y-82.5
X173.78Y-115.5
X173.81Y-92.39
X175.01Y-91.518
X175.5Y-113.0
X175.572Y-92.928
X176.2Y-97.1
X176.5Y-92.0
X176.5Y-95.9
X177.0Y-97.1
X177.0Y-98.0
X177.386Y-137.289
X179.0Y-78.4
X179.0Y-79.6
X179.0Y-95.9
X179.0Y-95.9
X179.299Y-139.201
X179.9Y-76.0
X179.9Y-79.0
X180.5Y-138.0
X180.5Y-140.5
X181.1Y-79.0
X181.5Y-117.0
X181.5Y-139.0
X183.0Y-74.225
X183.0Y-81.5
X183.0Y-87.0
X183.326Y-111.326
X184.174Y-112.174
X184.5Y-117.5
X185.0Y-110.5
X185.5Y-87.5
X186.0Y-86.5
X186.915Y-115.415
X187.0Y-117.5
X187.108Y-136.892
X187.5Y-111.0
X187.5Y-111.0
X188.014Y-116.014
X188.318Y-130.682
X188.5Y-136.5
X188.826Y-89.174
X189.0Y-96.5
X189.0Y-96.5
X189.4Y-135.0
X189.5Y-78.6
X189.5Y-93.5
X189.5Y-130.0
X189.674Y-88.326
X189.75Y-91.936
X190.34Y-117.723
X190.5Y-88.5
X191.0Y-129.0
X191.423Y-116.923
X191.5Y-91.0
X191.5Y-92.5
X191.5Y-130.6
X191.826Y-54.174
X192.0Y-59.4
X192.0Y-60.6
X192.0Y-78.6
X192.0Y-128.021
X192.19Y-130.0
X192.5Y-53.0
X192.5Y-124.49
X192.663Y-75.419
X192.921Y-127.421
X193.0Y-54.5
X193.0Y-96.0
X193.0Y-119.5
X193.19Y-117.276
X193.39Y-130.0
X193.39Y-135.5
X193.411Y-117.9
X193.5Y-126.5
X193.933Y-83.067
X194.0Y-78.6
X194.2Y-77.0
X194.5Y-55.5
X194.5Y-128.0
X194.55Y-96.0
X195.0Y-77.0
X196.0Y-138.5
X196.0Y-140.5
X196.451Y-79.778
X196.5Y-83.0
X196.5Y-87.5
X196.5Y-115.805
X196.5Y-123.5
X196.57Y-78.2
X196.9Y-96.0
X196.9Y-102.0
X197.0Y-63.5
X197.0Y-77.0
X197.5Y-65.0
X197.5Y-115.0
X197.826Y-74.326
X198.019Y-124.019
X198.1Y-96.0
X198.1Y-120.583
X198.118Y-83.053
X198.5Y-102.0
X198.5Y-115.805
X199.0Y-77.0
X199.0Y-88.5
X199.304Y-74.11
X199.753Y-78.228
X200.0Y-63.0
X200.58Y-79.5
X200.931Y-130.628
X201.0Y-75.0
X201.0Y-77.0
X201.0Y-78.2
X202.5Y-138.5
X202.5Y-140.0
X203.5Y-62.5
X203.75Y-126.5
X203.934Y-128.066
X204.0Y-61.0
X204.5Y-127.5
X205.392Y-85.22
X206.0Y-120.5
X206.0Y-132.3
X206.115Y-141.615
X206.141Y-63.292
X206.5Y-115.5
X207.5Y-133.5
X208.326Y-133.326
X208.5Y-105.5
X209.5Y-134.0
X209.551Y-106.551
X210.618Y-131.47
X210.938Y-125.517
X211.5Y-74.5
X211.5Y-81.5
X211.5Y-97.5
X212.0Y-108.5
X212.69Y-120.3
X213.05Y-97.5
X213.5Y-125.5
X214.331Y-123.443
X214.5Y-98.0
X214.5Y-120.5
X214.55Y-100.64
X215.0Y-89.9
X215.0Y-91.1
X215.5Y-141.0
X215.854Y-129.354
X215.963Y-120.963
X216.326Y-140.326
X216.5Y-127.5
X216.537Y-141.811
X217.061Y-121.561
X217.174Y-141.174
X217.346Y-128.154
X217.421Y-114.579
X218.11Y-124.5
X218.366Y-130.366
X218.5Y-127.5
X220.31Y-125.0
X220.31Y-128.5
X220.449Y-72.051
X221.51Y-127.0
X221.51Y-130.996
X221.91Y-110.5
X221.91Y-124.5
X222.5Y-129.5
X223.481Y-124.019
X224.0Y-96.0
X224.0Y-128.0
X224.5Y-123.0
X225.867Y-112.753
X226.0Y-96.0
X226.646Y-109.854
X227.0Y-49.59
X227.204Y-129.948
X227.5Y-51.0
X228.052Y-130.796
X228.9Y-121.6
X229.0Y-62.7
X231.867Y-48.367
X232.0Y-127.5
X232.639Y-102.435
X233.0Y-59.0
X233.93Y-102.177
X235.4Y-119.0
X235.5Y-97.0
X236.023Y-101.0
X237.0Y-119.0
X237.31Y-101.185
X239.0Y-127.0
X240.0Y-80.9
X240.5Y-82.5
X240.5Y-100.95
X242.0Y-104.5
X242.677Y-97.34
X242.823Y-102.12
X243.0Y-106.0
X243.4Y-132.5
X243.5Y-99.0
X244.843Y-136.843
X245.0Y-104.0
X245.5Y-105.0
X245.654Y-138.154
X246.0Y-103.0
X246.25Y-106.689
X246.5Y-131.5
X246.5Y-134.0
X247.0Y-133.0
X248.0Y-108.0
X249.0Y-108.0
X249.4Y-95.977
X249.5Y-130.1
X250.457Y-92.094
X251.0Y-126.0
X251.0Y-137.7
X251.081Y-83.76
X251.5Y-111.0
X251.5Y-136.5
X251.625Y-97.9
X252.171Y-104.829
X252.25Y-97.3
X252.5Y-76.5
X252.5Y-112.5
X252.5Y-119.35
X252.949Y-109.949
X253.45Y-96.7
X253.5Y-106.5
X253.53Y-113.97
X254.449Y-108.449
X254.5Y-103.5
X255.0Y-120.5
X257.0Y-136.5
X258.2Y-106.0
X258.61Y-128.0
X259.0Y-130.0
X261.5Y-119.5
X261.5Y-121.1
X262.0Y-87.5
X262.0Y-98.5
X263.079Y-97.421
X265.4Y-104.938
X266.3Y-82.0
X267.0Y-102.5
X267.5Y-89.65
X271.5Y-82.0
X275.0Y-94.5
X276.073Y-95.585
X277.0Y-91.5
X278.01Y-103.492
X278.014Y-92.514
X279.107Y-104.607
X281.5Y-98.99
X283.5Y-117.5
X284.174Y-118.674
X286.0Y-115.5
X286.5Y-87.0
X286.5Y-87.0
X287.1Y-131.5
X287.5Y-118.0
X288.9Y-117.5
X289.0Y-105.5
X290.0Y-86.0
X292.236Y-113.236
X292.5Y-111.0
X293.085Y-114.085
X294.646Y-108.732
X294.986Y-110.486
X295.986Y-109.486
X296.585Y-110.585
X297.5Y-110.0
X298.12Y-128.0
X298.12Y-131.0
X300.305Y-125.5
X300.305Y-133.26
X300.404Y-130.297
T2
X50.452Y-59.722
X50.952Y-71.222
X51.722Y-60.992
X52.222Y-72.492
X52.992Y-59.722
X53.492Y-71.222
T3
X151.46Y-96.5
X151.5Y-90.0
X152.73Y-95.23
X152.77Y-88.73
X154.0Y-96.5
X154.0Y-123.0
X154.0Y-125.54
X154.04Y-90.0
X154.64Y-61.73
X154.64Y-64.27
X155.27Y-124.27
X155.91Y-63.0
X160.14Y-123.73
X160.14Y-125.0
X160.14Y-126.27
X162.5Y-84.46
X162.5Y-85.73
X162.5Y-87.0
X167.23Y-103.64
X168.5Y-103.64
X169.77Y-103.64
X194.5Y-59.46
X194.5Y-60.73
X194.5Y-62.0
X194.64Y-117.23
X194.64Y-118.5
X194.64Y-119.77
X195.0Y-85.0
X195.0Y-86.27
X195.0Y-87.54
X195.36Y-79.23
X195.36Y-80.5
X195.36Y-81.77
X199.0Y-105.5
X199.0Y-106.77
X199.0Y-108.04
X214.0Y-96.5
X214.0Y-97.77
X214.0Y-99.04
X231.23Y-75.5
X232.5Y-75.5
X233.77Y-75.5
X244.0Y-101.23
X244.0Y-102.5
X244.0Y-103.77
X245.36Y-118.73
X245.36Y-120.0
X245.36Y-121.27
X281.96Y-138.0
X283.23Y-138.0
X284.5Y-138.0
T4
X34.69Y-89.0
X34.69Y-93.0
X36.75Y-84.0
X39.25Y-84.0
X42.31Y-89.0
X42.31Y-93.0
X47.19Y-49.0
X47.19Y-54.0
X48.19Y-117.5
X50.5Y-87.5
X50.5Y-101.0
X50.75Y-79.0
X53.0Y-87.5
X53.0Y-101.0
X53.25Y-79.0
X54.81Y-49.0
X54.81Y-54.0
X55.81Y-117.5
X57.5Y-107.19
X57.5Y-114.81
X59.5Y-119.5
X59.5Y-127.12
X59.5Y-130.25
X59.5Y-132.75
X59.69Y-82.5
X59.69Y-86.0
X62.69Y-115.5
X63.5Y-129.69
X63.5Y-137.31
X64.0Y-93.5
X64.0Y-118.93
X64.0Y-126.55
X66.0Y-107.0
X66.5Y-93.5
X67.31Y-82.5
X67.31Y-86.0
X67.5Y-129.69
X67.5Y-137.31
X68.0Y-118.69
X68.0Y-126.31
X68.5Y-107.0
X70.31Y-115.5
X71.25Y-63.5
X72.5Y-122.25
X72.5Y-124.75
X73.75Y-63.5
X74.69Y-96.19
X74.69Y-98.73
X74.69Y-101.27
X74.69Y-103.81
X75.0Y-109.75
X75.0Y-112.25
X76.19Y-117.5
X77.19Y-63.5
X78.0Y-87.0
X80.5Y-87.0
X82.31Y-96.19
X82.31Y-98.73
X82.31Y-101.27
X82.31Y-103.81
X83.81Y-117.5
X84.81Y-63.5
X85.69Y-83.0
X90.19Y-87.5
X90.19Y-100.5
X90.5Y-92.75
X90.5Y-95.25
X93.31Y-83.0
X94.75Y-92.5
X96.5Y-47.69
X96.5Y-55.31
X96.5Y-57.69
X96.5Y-65.31
X97.25Y-92.5
X97.5Y-80.25
X97.5Y-82.75
X97.81Y-87.5
X97.81Y-100.5
X100.19Y-95.0
X100.19Y-105.5
X100.69Y-82.69
X100.69Y-85.23
X100.69Y-87.77
X100.69Y-90.31
X102.19Y-117.5
X102.75Y-100.0
X103.0Y-62.5
X103.75Y-79.5
X105.25Y-100.0
X105.5Y-62.5
X106.25Y-79.5
X107.81Y-95.0
X107.81Y-105.5
X108.31Y-82.69
X108.31Y-85.23
X108.31Y-87.77
X108.31Y-90.31
X109.81Y-117.5
X110.5Y-97.19
X110.5Y-104.81
X112.0Y-81.5
X112.0Y-84.0
X112.0Y-87.0
X112.0Y-94.62
X113.5Y-69.19
X113.5Y-76.81
X113.5Y-111.19
X113.5Y-118.81
X114.5Y-97.19
X114.5Y-104.81
X115.19Y-82.69
X115.19Y-85.23
X115.19Y-87.77
X115.19Y-90.31
X115.19Y-94.0
X115.19Y-132.0
X115.19Y-135.5
X115.38Y-62.5
X115.5Y-51.19
X115.5Y-58.81
X117.0Y-125.0
X117.0Y-127.5
X118.5Y-97.19
X118.5Y-104.81
X118.75Y-108.0
X119.5Y-79.5
X119.695Y-49.19
X119.695Y-51.73
X119.695Y-54.27
X119.695Y-56.81
X121.25Y-108.0
X121.5Y-115.5
X122.0Y-79.5
X122.5Y-97.19
X122.5Y-104.81
X122.81Y-82.69
X122.81Y-85.23
X122.81Y-87.77
X122.81Y-90.31
X122.81Y-94.0
X122.81Y-132.0
X122.81Y-135.5
X123.0Y-62.5
X124.0Y-115.5
X125.19Y-62.5
X126.0Y-79.69
X126.0Y-87.31
X126.0Y-89.69
X126.0Y-97.31
X127.315Y-49.19
X127.315Y-51.73
X127.315Y-54.27
X127.315Y-56.81
X127.5Y-100.69
X127.5Y-108.31
X129.69Y-119.0
X131.0Y-108.19
X131.0Y-115.81
X131.195Y-95.69
X131.195Y-98.23
X131.195Y-100.77
X131.195Y-103.31
X132.81Y-62.5
X133.5Y-71.5
X135.75Y-62.5
X136.0Y-71.5
X136.0Y-85.0
X137.31Y-119.0
X138.25Y-62.5
X138.5Y-85.0
X138.815Y-95.69
X138.815Y-98.23
X138.815Y-100.77
X138.815Y-103.31
X139.685Y-111.69
X139.685Y-114.23
X139.685Y-116.77
X139.685Y-119.31
X141.5Y-101.19
X141.5Y-108.81
X143.19Y-63.5
X143.19Y-67.5
X143.695Y-71.69
X143.695Y-74.23
X143.695Y-76.77
X143.695Y-79.31
X144.0Y-84.5
X144.0Y-122.19
X144.0Y-129.81
X144.0Y-132.69
X144.0Y-140.31
X144.69Y-48.695
X144.69Y-56.315
X145.5Y-59.5
X145.5Y-103.25
X145.5Y-105.75
X147.23Y-48.695
X147.23Y-56.315
X147.305Y-111.69
X147.305Y-114.23
X147.305Y-116.77
X147.305Y-119.31
X147.5Y-122.5
X147.5Y-125.88
X147.5Y-133.5
X148.0Y-59.5
X148.0Y-90.19
X148.0Y-97.81
X149.77Y-48.695
X149.77Y-56.315
X150.0Y-100.19
X150.0Y-107.81
X150.0Y-122.5
X150.195Y-111.69
X150.195Y-114.23
X150.195Y-116.77
X150.195Y-119.31
X150.81Y-63.5
X150.81Y-67.5
X151.315Y-71.69
X151.315Y-74.23
X151.315Y-76.77
X151.315Y-79.31
X151.62Y-84.5
X152.31Y-48.695
X152.31Y-56.315
X153.0Y-133.5
X154.5Y-66.69
X154.5Y-74.31
X154.5Y-77.19
X154.5Y-84.81
X154.5Y-100.88
X154.5Y-108.5
X155.5Y-51.19
X155.5Y-58.81
X155.5Y-133.5
X157.815Y-111.69
X157.815Y-114.23
X157.815Y-116.77
X157.815Y-119.31
X158.0Y-90.19
X158.0Y-97.81
X158.0Y-101.19
X158.0Y-108.81
X158.5Y-70.19
X158.5Y-77.81
X158.5Y-80.38
X158.5Y-88.0
X161.38Y-77.5
X161.5Y-101.75
X161.5Y-104.25
X161.5Y-107.5
X161.5Y-110.0
X161.5Y-113.19
X161.5Y-120.81
X161.69Y-81.0
X162.0Y-90.19
X162.0Y-97.81
X165.69Y-91.19
X165.69Y-93.73
X165.69Y-96.27
X165.69Y-98.81
X166.5Y-130.38
X166.5Y-138.0
X167.0Y-84.75
X167.0Y-87.25
X168.19Y-117.5
X169.0Y-77.5
X169.31Y-81.0
X172.0Y-80.69
X172.0Y-88.31
X172.69Y-103.0
X172.69Y-106.5
X172.69Y-141.5
X173.31Y-91.19
X173.31Y-93.73
X173.31Y-96.27
X173.31Y-98.81
X174.0Y-48.69
X174.0Y-56.31
X175.0Y-59.5
X175.5Y-80.69
X175.5Y-88.31
X175.81Y-117.5
X177.0Y-50.0
X177.5Y-59.5
X178.0Y-53.5
X178.0Y-56.0
X178.19Y-119.5
X178.5Y-109.19
X178.5Y-116.81
X179.5Y-50.0
X180.0Y-93.618
X180.0Y-96.118
X180.31Y-103.0
X180.31Y-106.5
X180.31Y-141.5
X181.5Y-52.69
X181.5Y-60.31
X181.69Y-115.0
X182.19Y-123.0
X183.0Y-83.0
X183.0Y-85.5
X183.69Y-126.19
X183.69Y-133.81
X183.69Y-140.0
X184.5Y-52.69
X184.5Y-60.31
X185.81Y-119.5
X186.23Y-126.19
X186.23Y-133.81
X187.19Y-56.5
X187.5Y-60.0
X187.5Y-104.5
X187.5Y-107.0
X188.5Y-63.25
X188.5Y-65.75
X188.5Y-68.69
X188.5Y-76.31
X188.75Y-119.5
X188.77Y-126.19
X188.77Y-133.81
X189.31Y-115.0
X189.81Y-123.0
X190.0Y-60.0
X190.5Y-79.19
X190.5Y-86.81
X191.0Y-93.118
X191.0Y-95.618
X191.185Y-65.19
X191.185Y-67.73
X191.185Y-70.27
X191.185Y-72.81
X191.25Y-119.5
X191.31Y-126.19
X191.31Y-133.81
X191.31Y-140.0
X191.5Y-76.0
X191.69Y-114.0
X191.69Y-137.0
X192.19Y-123.0
X193.69Y-141.0
X194.0Y-76.0
X194.81Y-56.5
X195.0Y-102.19
X195.0Y-109.81
X195.0Y-126.19
X195.0Y-133.81
X197.0Y-76.0
X198.19Y-90.5
X198.69Y-118.5
X198.805Y-65.19
X198.805Y-67.73
X198.805Y-70.27
X198.805Y-72.81
X198.88Y-79.46
X198.88Y-82.0
X198.88Y-84.54
X198.88Y-87.08
X199.0Y-59.5
X199.0Y-62.0
X199.31Y-114.0
X199.31Y-137.0
X199.81Y-123.0
X201.31Y-141.0
X201.5Y-65.69
X201.5Y-73.31
X202.0Y-55.69
X202.0Y-63.31
X202.0Y-129.0
X202.0Y-131.5
X202.0Y-138.0
X202.19Y-122.0
X202.5Y-97.0
X202.5Y-99.5
X203.19Y-106.0
X203.69Y-141.0
X204.5Y-138.0
X204.62Y-76.0
X205.81Y-90.5
X206.0Y-62.0
X206.31Y-118.5
X206.5Y-46.5
X206.5Y-49.0
X206.5Y-79.46
X206.5Y-82.0
X206.5Y-84.54
X206.5Y-87.08
X207.0Y-69.5
X207.19Y-76.5
X207.75Y-138.0
X208.5Y-62.0
X209.0Y-116.0
X209.0Y-118.5
X209.5Y-69.5
X209.5Y-79.0
X209.5Y-86.62
X209.5Y-89.25
X209.5Y-91.75
X209.5Y-95.0
X209.5Y-97.5
X209.5Y-100.5
X209.5Y-103.0
X209.5Y-110.25
X209.5Y-112.75
X209.5Y-125.0
X209.5Y-132.62
X209.81Y-122.0
X210.25Y-138.0
X210.81Y-106.0
X211.19Y-63.0
X211.31Y-141.0
X211.69Y-118.0
X212.19Y-79.5
X212.19Y-108.5
X212.19Y-111.0
X212.19Y-114.5
X212.19Y-121.5
X212.19Y-124.69
X212.19Y-127.23
X212.19Y-129.77
X212.19Y-132.31
X212.5Y-86.19
X212.5Y-93.81
X212.69Y-102.5
X213.19Y-105.5
X213.5Y-135.5
X213.5Y-138.0
X213.75Y-82.5
X214.81Y-76.5
X215.75Y-66.0
X216.25Y-82.5
X216.5Y-135.19
X216.5Y-142.81
X217.19Y-98.0
X217.5Y-69.19
X217.5Y-76.81
X218.25Y-66.0
X218.81Y-63.0
X219.31Y-118.0
X219.5Y-88.5
X219.5Y-91.0
X219.81Y-79.5
X219.81Y-108.5
X219.81Y-111.0
X219.81Y-114.5
X219.81Y-121.5
X219.81Y-124.69
X219.81Y-127.23
X219.81Y-129.77
X219.81Y-132.31
X220.19Y-72.5
X220.31Y-102.5
X220.5Y-69.5
X220.75Y-46.0
X220.81Y-105.5
X221.19Y-66.5
X222.5Y-75.19
X222.5Y-82.81
X222.5Y-109.19
X222.5Y-116.81
X222.5Y-119.69
X222.5Y-127.31
X222.5Y-130.0
X222.5Y-132.5
X223.0Y-69.5
X223.25Y-46.0
X223.5Y-104.0
X223.5Y-106.5
X224.81Y-98.0
X225.19Y-80.0
X225.5Y-111.5
X225.5Y-114.0
X225.5Y-125.19
X225.5Y-132.81
X225.75Y-69.5
X225.75Y-77.0
X226.5Y-46.19
X226.5Y-53.81
X226.5Y-101.38
X226.5Y-109.0
X226.69Y-141.0
X227.0Y-56.19
X227.0Y-63.81
X227.5Y-116.69
X227.5Y-124.31
X227.81Y-72.5
X228.0Y-91.19
X228.0Y-98.81
X228.25Y-69.5
X228.25Y-77.0
X228.5Y-127.0
X228.5Y-129.5
X228.5Y-132.75
X228.5Y-135.25
X228.81Y-66.5
X229.195Y-50.19
X229.195Y-52.73
X229.195Y-55.27
X229.195Y-57.81
X229.69Y-101.185
X229.69Y-108.805
X230.19Y-47.0
X230.19Y-61.0
X230.5Y-112.69
X230.5Y-120.31
X231.0Y-63.69
X231.0Y-71.31
X232.23Y-101.185
X232.23Y-108.805
X232.81Y-80.0
X233.19Y-120.0
X233.69Y-117.0
X234.0Y-63.69
X234.0Y-71.31
X234.31Y-141.0
X234.77Y-101.185
X234.77Y-108.805
X235.0Y-79.19
X235.0Y-86.81
X235.5Y-93.0
X235.5Y-95.5
X236.69Y-67.0
X236.815Y-50.19
X236.815Y-52.73
X236.815Y-55.27
X236.815Y-57.81
X237.25Y-64.0
X237.31Y-101.185
X237.31Y-108.805
X237.69Y-69.685
X237.69Y-77.305
X237.81Y-47.0
X237.81Y-61.0
X238.0Y-80.0
X238.0Y-87.62
X239.75Y-64.0
X240.23Y-69.685
X240.23Y-77.305
X240.5Y-43.69
X240.5Y-51.31
X240.5Y-53.5
X240.5Y-61.12
X240.5Y-102.25
X240.5Y-104.75
X240.5Y-106.69
X240.5Y-114.31
X240.81Y-120.0
X241.0Y-80.0
X241.0Y-87.62
X241.31Y-117.0
X241.69Y-98.5
X242.69Y-64.0
X242.77Y-69.685
X242.77Y-77.305
X243.685Y-80.38
X243.685Y-82.92
X243.685Y-85.46
X243.685Y-88.0
X243.685Y-90.54
X243.685Y-93.08
X243.685Y-95.62
X244.0Y-128.0
X244.19Y-124.5
X244.31Y-67.0
X245.31Y-69.685
X245.31Y-77.305
X246.5Y-128.0
X247.118Y-137.0
X247.5Y-109.882
X247.5Y-112.382
X248.19Y-102.5
X249.31Y-98.5
X249.5Y-118.75
X249.5Y-121.25
X249.618Y-137.0
X249.69Y-128.0
X250.31Y-64.0
X251.305Y-80.38
X251.305Y-82.92
X251.305Y-85.46
X251.305Y-88.0
X251.305Y-90.54
X251.305Y-93.08
X251.305Y-95.62
X251.75Y-98.5
X251.81Y-124.5
X253.5Y-70.0
X253.5Y-72.5
X254.25Y-98.5
X254.69Y-131.5
X255.19Y-80.0
X255.19Y-107.0
X255.19Y-110.5
X255.19Y-113.5
X255.19Y-138.5
X255.81Y-102.5
X257.0Y-88.0
X257.0Y-120.5
X257.31Y-128.0
X258.0Y-96.69
X258.0Y-104.31
X259.5Y-88.0
X259.5Y-120.5
X261.5Y-96.69
X261.5Y-104.31
X262.31Y-131.5
X262.81Y-80.0
X262.81Y-107.0
X262.81Y-110.5
X262.81Y-113.5
X262.81Y-138.5
X264.19Y-84.0
X264.5Y-101.5
X264.5Y-104.0
X265.69Y-86.69
X265.69Y-94.31
X265.69Y-117.0
X266.0Y-106.69
X266.0Y-114.31
X266.69Y-120.0
X267.5Y-96.69
X267.5Y-104.31
X268.0Y-80.5
X268.23Y-86.69
X268.23Y-94.31
X269.0Y-108.5
X270.5Y-80.5
X270.5Y-97.0
X270.5Y-99.5
X270.77Y-86.69
X270.77Y-94.31
X271.5Y-108.5
X271.81Y-84.0
X273.31Y-86.69
X273.31Y-94.31
X273.31Y-117.0
X273.5Y-96.69
X273.5Y-104.31
X274.31Y-120.0
X275.0Y-107.0
X275.0Y-109.5
X276.5Y-86.69
X276.5Y-94.31
X277.0Y-96.69
X277.0Y-104.31
X278.0Y-68.5
X278.0Y-79.5
X279.0Y-133.19
X279.0Y-140.81
X279.5Y-86.69
X279.5Y-94.31
X280.0Y-98.0
X280.0Y-115.5
X280.5Y-68.5
X280.5Y-79.5
X280.5Y-100.69
X280.5Y-108.31
X282.0Y-126.5
X282.0Y-134.0
X282.5Y-98.0
X282.5Y-115.5
X284.0Y-100.69
X284.0Y-108.31
X284.5Y-126.5
X284.5Y-134.0
X286.5Y-73.69
X286.5Y-81.31
X286.5Y-88.5
X286.5Y-91.0
X287.0Y-63.69
X287.0Y-71.31
X287.5Y-100.69
X287.5Y-108.31
X287.805Y-134.25
X287.805Y-136.75
X290.0Y-62.5
X290.0Y-65.0
X290.0Y-68.0
X290.0Y-70.5
X290.0Y-73.69
X290.0Y-81.31
X290.0Y-111.42
X290.0Y-113.96
X290.0Y-116.5
X290.0Y-119.04
X290.0Y-121.58
X290.0Y-124.12
X290.0Y-126.66
X290.0Y-129.2
X290.495Y-132.31
X290.495Y-135.31
X290.5Y-98.0
X290.5Y-100.5
X292.19Y-84.0
X294.5Y-100.19
X294.5Y-107.81
X295.0Y-142.5
X296.0Y-92.0
X297.5Y-142.5
X297.62Y-111.42
X297.62Y-113.96
X297.62Y-116.5
X297.62Y-119.04
X297.62Y-121.58
X297.62Y-124.12
X297.62Y-126.66
X297.62Y-129.2
X297.69Y-107.5
X298.115Y-132.31
X298.115Y-135.31
X298.5Y-92.0
X299.81Y-84.0
X300.805Y-110.5
X300.805Y-118.12
X300.805Y-120.81
X300.805Y-123.31
X300.805Y-126.56
X300.805Y-129.06
X300.805Y-132.06
X300.805Y-134.56
X305.31Y-107.5
T5
X48.23Y-110.0
X50.77Y-110.0
X78.73Y-110.5
X81.27Y-110.5
X104.73Y-111.0
X107.27Y-111.0
X134.23Y-111.0
X136.77Y-111.0
X173.0Y-111.5
X175.54Y-111.5
X234.73Y-112.5
X237.27Y-112.5
X269.23Y-112.5
X271.77Y-112.5
T6
X37.0Y-59.725
X38.5Y-79.225
X39.5Y-59.725
X41.0Y-79.225
X42.0Y-59.725
X43.5Y-79.225
X60.5Y-59.225
X62.0Y-78.225
X63.0Y-59.225
X64.5Y-78.225
X65.5Y-59.225
X67.0Y-78.225
X79.5Y-59.725
X79.5Y-78.225
X82.0Y-59.725
X82.0Y-78.225
X84.5Y-59.725
X84.5Y-78.225
X103.0Y-59.725
X103.0Y-76.725
X105.5Y-59.725
X105.5Y-76.725
X108.0Y-59.725
X108.0Y-76.725
X119.0Y-76.725
X120.5Y-124.26
X121.5Y-76.725
X123.0Y-129.26
X124.0Y-76.725
X125.5Y-124.26
X133.5Y-59.725
X136.0Y-59.725
X138.5Y-59.725
X163.0Y-59.725
X163.0Y-74.225
X165.5Y-59.725
X165.5Y-74.225
X165.555Y-109.575
X168.0Y-59.725
X168.0Y-74.225
X168.055Y-114.575
X170.555Y-109.575
X178.0Y-74.225
X180.5Y-74.225
X183.0Y-74.225
X194.555Y-49.075
X197.055Y-54.075
X199.555Y-49.075
X201.76Y-110.0
X201.76Y-115.0
X206.76Y-112.5
X216.0Y-60.225
X218.5Y-60.225
X219.5Y-135.76
X221.0Y-60.225
X222.0Y-140.76
X224.5Y-135.76
X226.76Y-83.0
X226.76Y-88.0
X231.76Y-85.5
X246.5Y-60.225
X249.0Y-60.225
X251.5Y-60.225
X264.0Y-76.725
X265.5Y-59.725
X266.5Y-76.725
X268.0Y-59.725
X269.0Y-76.725
X270.5Y-59.725
X281.0Y-59.725
X283.5Y-59.725
X286.0Y-59.725
T7
X143.5Y-88.42
X143.5Y-98.58
X165.0Y-117.42
X165.0Y-127.58
T8
X24.55Y-99.355
X24.55Y-110.785
X37.25Y-99.355
X37.25Y-110.785
X301.5Y-65.57
X301.5Y-77.0
X314.2Y-65.57
X314.2Y-77.0
T6
G00X25.2Y-87.4
M15
G01X25.2Y-89.6
M16
G05
G00X29.7Y-93.3
M15
G01X27.5Y-93.3
M16
G05
G00X31.5Y-87.2
M15
G01X31.5Y-89.8
M16
G05
T7
G00X34.7Y-52.575
M15
G01X34.7Y-51.875
M16
G05
G00X36.2Y-72.075
M15
G01X36.2Y-71.375
M16
G05
G00X44.3Y-52.575
M15
G01X44.3Y-51.875
M16
G05
G00X45.17Y-124.92
M15
G01X45.67Y-124.92
M16
G05
G00X45.17Y-130.0
M15
G01X45.67Y-130.0
M16
G05
G00X45.17Y-135.08
M15
G01X45.67Y-135.08
M16
G05
G00X45.8Y-72.075
M15
G01X45.8Y-71.375
M16
G05
G00X50.25Y-124.92
M15
G01X50.75Y-124.92
M16
G05
G00X50.25Y-130.0
M15
G01X50.75Y-130.0
M16
G05
G00X50.25Y-135.08
M15
G01X50.75Y-135.08
M16
G05
G00X55.33Y-124.92
M15
G01X55.83Y-124.92
M16
G05
G00X55.33Y-130.0
M15
G01X55.83Y-130.0
M16
G05
G00X55.33Y-135.08
M15
G01X55.83Y-135.08
M16
G05
G00X58.2Y-52.075
M15
G01X58.2Y-51.375
M16
G05
G00X59.7Y-71.075
M15
G01X59.7Y-70.375
M16
G05
G00X67.8Y-52.075
M15
G01X67.8Y-51.375
M16
G05
G00X69.3Y-71.075
M15
G01X69.3Y-70.375
M16
G05
G00X75.17Y-124.92
M15
G01X75.67Y-124.92
M16
G05
G00X75.17Y-130.0
M15
G01X75.67Y-130.0
M16
G05
G00X75.17Y-135.08
M15
G01X75.67Y-135.08
M16
G05
G00X77.2Y-52.575
M15
G01X77.2Y-51.875
M16
G05
G00X77.2Y-71.075
M15
G01X77.2Y-70.375
M16
G05
G00X80.25Y-124.92
M15
G01X80.75Y-124.92
M16
G05
G00X80.25Y-130.0
M15
G01X80.75Y-130.0
M16
G05
G00X80.25Y-135.08
M15
G01X80.75Y-135.08
M16
G05
G00X85.33Y-124.92
M15
G01X85.83Y-124.92
M16
G05
G00X85.33Y-130.0
M15
G01X85.83Y-130.0
M16
G05
G00X85.33Y-135.08
M15
G01X85.83Y-135.08
M16
G05
G00X86.8Y-52.575
M15
G01X86.8Y-51.875
M16
G05
G00X86.8Y-71.075
M15
G01X86.8Y-70.375
M16
G05
G00X100.7Y-52.575
M15
G01X100.7Y-51.875
M16
G05
G00X100.7Y-69.575
M15
G01X100.7Y-68.875
M16
G05
G00X101.17Y-124.92
M15
G01X101.67Y-124.92
M16
G05
G00X101.17Y-130.0
M15
G01X101.67Y-130.0
M16
G05
G00X101.17Y-135.08
M15
G01X101.67Y-135.08
M16
G05
G00X106.25Y-124.92
M15
G01X106.75Y-124.92
M16
G05
G00X106.25Y-130.0
M15
G01X106.75Y-130.0
M16
G05
G00X106.25Y-135.08
M15
G01X106.75Y-135.08
M16
G05
G00X110.3Y-52.575
M15
G01X110.3Y-51.875
M16
G05
G00X110.3Y-69.575
M15
G01X110.3Y-68.875
M16
G05
G00X111.33Y-124.92
M15
G01X111.83Y-124.92
M16
G05
G00X111.33Y-130.0
M15
G01X111.83Y-130.0
M16
G05
G00X111.33Y-135.08
M15
G01X111.83Y-135.08
M16
G05
G00X116.7Y-69.575
M15
G01X116.7Y-68.875
M16
G05
G00X126.3Y-69.575
M15
G01X126.3Y-68.875
M16
G05
G00X130.17Y-124.92
M15
G01X130.67Y-124.92
M16
G05
G00X130.17Y-130.0
M15
G01X130.67Y-130.0
M16
G05
G00X130.17Y-135.08
M15
G01X130.67Y-135.08
M16
G05
G00X131.2Y-52.575
M15
G01X131.2Y-51.875
M16
G05
G00X135.25Y-124.92
M15
G01X135.75Y-124.92
M16
G05
G00X135.25Y-130.0
M15
G01X135.75Y-130.0
M16
G05
G00X135.25Y-135.08
M15
G01X135.75Y-135.08
M16
G05
G00X140.33Y-124.92
M15
G01X140.83Y-124.92
M16
G05
G00X140.33Y-130.0
M15
G01X140.83Y-130.0
M16
G05
G00X140.33Y-135.08
M15
G01X140.83Y-135.08
M16
G05
G00X140.8Y-52.575
M15
G01X140.8Y-51.875
M16
G05
G00X160.7Y-52.575
M15
G01X160.7Y-51.875
M16
G05
G00X160.7Y-67.075
M15
G01X160.7Y-66.375
M16
G05
G00X169.25Y-125.34
M15
G01X169.75Y-125.34
M16
G05
G00X169.25Y-130.42
M15
G01X169.75Y-130.42
M16
G05
G00X169.25Y-135.5
M15
G01X169.75Y-135.5
M16
G05
G00X170.3Y-52.575
M15
G01X170.3Y-51.875
M16
G05
G00X170.3Y-67.075
M15
G01X170.3Y-66.375
M16
G05
G00X174.33Y-125.34
M15
G01X174.83Y-125.34
M16
G05
G00X174.33Y-130.42
M15
G01X174.83Y-130.42
M16
G05
G00X174.33Y-135.5
M15
G01X174.83Y-135.5
M16
G05
G00X175.7Y-67.075
M15
G01X175.7Y-66.375
M16
G05
G00X179.41Y-125.34
M15
G01X179.91Y-125.34
M16
G05
G00X179.41Y-130.42
M15
G01X179.91Y-130.42
M16
G05
G00X179.41Y-135.5
M15
G01X179.91Y-135.5
M16
G05
G00X185.3Y-67.075
M15
G01X185.3Y-66.375
M16
G05
G00X213.7Y-53.075
M15
G01X213.7Y-52.375
M16
G05
G00X223.3Y-53.075
M15
G01X223.3Y-52.375
M16
G05
G00X230.67Y-125.42
M15
G01X231.17Y-125.42
M16
G05
G00X230.67Y-130.5
M15
G01X231.17Y-130.5
M16
G05
G00X230.67Y-135.58
M15
G01X231.17Y-135.58
M16
G05
G00X235.75Y-125.42
M15
G01X236.25Y-125.42
M16
G05
G00X235.75Y-130.5
M15
G01X236.25Y-130.5
M16
G05
G00X235.75Y-135.58
M15
G01X236.25Y-135.58
M16
G05
G00X240.83Y-125.42
M15
G01X241.33Y-125.42
M16
G05
G00X240.83Y-130.5
M15
G01X241.33Y-130.5
M16
G05
G00X240.83Y-135.58
M15
G01X241.33Y-135.58
M16
G05
G00X244.2Y-53.075
M15
G01X244.2Y-52.375
M16
G05
G00X253.8Y-53.075
M15
G01X253.8Y-52.375
M16
G05
G00X261.7Y-69.575
M15
G01X261.7Y-68.875
M16
G05
G00X263.2Y-52.575
M15
G01X263.2Y-51.875
M16
G05
G00X265.17Y-125.34
M15
G01X265.67Y-125.34
M16
G05
G00X265.17Y-130.42
M15
G01X265.67Y-130.42
M16
G05
G00X265.17Y-135.5
M15
G01X265.67Y-135.5
M16
G05
G00X270.25Y-125.34
M15
G01X270.75Y-125.34
M16
G05
G00X270.25Y-130.42
M15
G01X270.75Y-130.42
M16
G05
G00X270.25Y-135.5
M15
G01X270.75Y-135.5
M16
G05
G00X271.3Y-69.575
M15
G01X271.3Y-68.875
M16
G05
G00X272.8Y-52.575
M15
G01X272.8Y-51.875
M16
G05
G00X275.33Y-125.34
M15
G01X275.83Y-125.34
M16
G05
G00X275.33Y-130.42
M15
G01X275.83Y-130.42
M16
G05
G00X275.33Y-135.5
M15
G01X275.83Y-135.5
M16
G05
G00X278.7Y-52.575
M15
G01X278.7Y-51.875
M16
G05
G00X288.3Y-52.575
M15
G01X288.3Y-51.875
M16
G05
M30
