%TF.GenerationSoftware,KiCad,Pcbnew,10.0.4*%
%TF.CreationDate,2026-07-23T05:16:41+05:00*%
%TF.ProjectId,guitar pro,67756974-6172-4207-9072-6f2e6b696361,rev?*%
%TF.SameCoordinates,Original*%
%TF.FileFunction,Soldermask,Top*%
%TF.FilePolarity,Negative*%
%FSLAX46Y46*%
G04 Gerber Fmt 4.6, Leading zero omitted, Abs format (unit mm)*
G04 Created by KiCad (PCBNEW 10.0.4) date 2026-07-23 05:16:41*
%MOMM*%
%LPD*%
G01*
G04 APERTURE LIST*
G04 Aperture macros list*
%AMRoundRect*
0 Rectangle with rounded corners*
0 $1 Rounding radius*
0 $2 $3 $4 $5 $6 $7 $8 $9 X,Y pos of 4 corners*
0 Add a 4 corners polygon primitive as box body*
4,1,4,$2,$3,$4,$5,$6,$7,$8,$9,$2,$3,0*
0 Add four circle primitives for the rounded corners*
1,1,$1+$1,$2,$3*
1,1,$1+$1,$4,$5*
1,1,$1+$1,$6,$7*
1,1,$1+$1,$8,$9*
0 Add four rect primitives between the rounded corners*
20,1,$1+$1,$2,$3,$4,$5,0*
20,1,$1+$1,$4,$5,$6,$7,0*
20,1,$1+$1,$6,$7,$8,$9,0*
20,1,$1+$1,$8,$9,$2,$3,0*%
G04 Aperture macros list end*
%ADD10C,1.600000*%
%ADD11O,2.720000X3.240000*%
%ADD12R,1.800000X1.800000*%
%ADD13C,1.800000*%
%ADD14R,1.050000X1.500000*%
%ADD15O,1.050000X1.500000*%
%ADD16R,1.500000X1.050000*%
%ADD17O,1.500000X1.050000*%
%ADD18C,3.200000*%
%ADD19RoundRect,0.250000X0.550000X0.550000X-0.550000X0.550000X-0.550000X-0.550000X0.550000X-0.550000X0*%
%ADD20RoundRect,0.250000X-0.550000X-0.550000X0.550000X-0.550000X0.550000X0.550000X-0.550000X0.550000X0*%
%ADD21O,1.600000X1.200000*%
%ADD22C,1.200000*%
%ADD23RoundRect,0.300000X-1.100000X-0.700000X1.100000X-0.700000X1.100000X0.700000X-1.100000X0.700000X0*%
%ADD24RoundRect,0.250000X0.550000X-0.550000X0.550000X0.550000X-0.550000X0.550000X-0.550000X-0.550000X0*%
%ADD25RoundRect,0.250000X-0.550000X0.550000X-0.550000X-0.550000X0.550000X-0.550000X0.550000X0.550000X0*%
%ADD26R,1.560000X1.560000*%
%ADD27C,1.560000*%
%ADD28R,1.300000X1.300000*%
%ADD29C,1.300000*%
%ADD30C,3.000000*%
%ADD31C,2.000000*%
%ADD32RoundRect,0.250000X0.600000X-0.400000X0.600000X0.400000X-0.600000X0.400000X-0.600000X-0.400000X0*%
%ADD33RoundRect,0.249999X-0.850001X0.850001X-0.850001X-0.850001X0.850001X-0.850001X0.850001X0.850001X0*%
%ADD34C,2.200000*%
%ADD35R,2.000000X4.600000*%
%ADD36O,2.000000X4.200000*%
%ADD37O,4.200000X2.000000*%
G04 APERTURE END LIST*
D10*
%TO.C,R39*%
X158000000Y-90190000D03*
X158000000Y-97810000D03*
%TD*%
%TO.C,R133*%
X261500000Y-104310000D03*
X261500000Y-96690000D03*
%TD*%
%TO.C,R63*%
X172690000Y-106500000D03*
X180310000Y-106500000D03*
%TD*%
%TO.C,R12*%
X64000000Y-126550000D03*
X64000000Y-118930000D03*
%TD*%
D11*
%TO.C,RV_BIAS1*%
X36200000Y-71725000D03*
X45800000Y-71725000D03*
D12*
X38500000Y-79225000D03*
D13*
X41000000Y-79225000D03*
X43500000Y-79225000D03*
%TD*%
D10*
%TO.C,C10*%
X59500000Y-130250000D03*
X59500000Y-132750000D03*
%TD*%
D12*
%TO.C,D23*%
X269230000Y-112500000D03*
D13*
X271770000Y-112500000D03*
%TD*%
D14*
%TO.C,Q15*%
X231230000Y-75500000D03*
D15*
X232500000Y-75500000D03*
X233770000Y-75500000D03*
%TD*%
D10*
%TO.C,C74*%
X223250000Y-46000000D03*
X220750000Y-46000000D03*
%TD*%
%TO.C,R57*%
X172000000Y-88310000D03*
X172000000Y-80690000D03*
%TD*%
%TO.C,R142*%
X279500000Y-86690000D03*
X279500000Y-94310000D03*
%TD*%
%TO.C,R67*%
X205810000Y-90500000D03*
X198190000Y-90500000D03*
%TD*%
%TO.C,R74*%
X198690000Y-118500000D03*
X206310000Y-118500000D03*
%TD*%
%TO.C,R106*%
X161500000Y-120810000D03*
X161500000Y-113190000D03*
%TD*%
%TO.C,R137*%
X266690000Y-120000000D03*
X274310000Y-120000000D03*
%TD*%
%TO.C,C94*%
X290000000Y-65000000D03*
X290000000Y-62500000D03*
%TD*%
D16*
%TO.C,Q13*%
X214000000Y-99040000D03*
D17*
X214000000Y-97770000D03*
X214000000Y-96500000D03*
%TD*%
D10*
%TO.C,C58*%
X179500000Y-50000000D03*
X177000000Y-50000000D03*
%TD*%
D18*
%TO.C,REF\u002A\u002A*%
X309500000Y-40500000D03*
%TD*%
D19*
%TO.C,D17*%
X219810000Y-108500000D03*
D10*
X212190000Y-108500000D03*
%TD*%
D11*
%TO.C,RVGain1*%
X100700000Y-52225000D03*
X110300000Y-52225000D03*
D12*
X103000000Y-59725000D03*
D13*
X105500000Y-59725000D03*
X108000000Y-59725000D03*
%TD*%
D10*
%TO.C,R124*%
X230190000Y-61000000D03*
X237810000Y-61000000D03*
%TD*%
%TO.C,R130*%
X262810000Y-110500000D03*
X255190000Y-110500000D03*
%TD*%
%TO.C,R20*%
X115190000Y-94000000D03*
X122810000Y-94000000D03*
%TD*%
D12*
%TO.C,D9*%
X104730000Y-111000000D03*
D13*
X107270000Y-111000000D03*
%TD*%
D10*
%TO.C,R72*%
X182190000Y-123000000D03*
X189810000Y-123000000D03*
%TD*%
%TO.C,C89*%
X300805000Y-120810000D03*
X300805000Y-123310000D03*
%TD*%
D20*
%TO.C,U14*%
X198880000Y-79460000D03*
D10*
X198880000Y-82000000D03*
X198880000Y-84540000D03*
X198880000Y-87080000D03*
X206500000Y-87080000D03*
X206500000Y-84540000D03*
X206500000Y-82000000D03*
X206500000Y-79460000D03*
%TD*%
%TO.C,C24*%
X145500000Y-103250000D03*
X145500000Y-105750000D03*
%TD*%
D16*
%TO.C,Q10*%
X195000000Y-85000000D03*
D17*
X195000000Y-86270000D03*
X195000000Y-87540000D03*
%TD*%
D21*
%TO.C,Q1*%
X50451961Y-59721961D03*
D22*
X51721961Y-60991961D03*
X52991961Y-59721961D03*
%TD*%
D10*
%TO.C,R32*%
X129690000Y-119000000D03*
X137310000Y-119000000D03*
%TD*%
D23*
%TO.C,SW7*%
X265420000Y-125340000D03*
X270500000Y-125340000D03*
X275580000Y-125340000D03*
X265420000Y-130420000D03*
X270500000Y-130420000D03*
X275580000Y-130420000D03*
X265420000Y-135500000D03*
X270500000Y-135500000D03*
X275580000Y-135500000D03*
%TD*%
D10*
%TO.C,C49*%
X209500000Y-91750000D03*
X209500000Y-89250000D03*
%TD*%
%TO.C,R16*%
X90190000Y-87500000D03*
X97810000Y-87500000D03*
%TD*%
%TO.C,R100*%
X222500000Y-127310000D03*
X222500000Y-119690000D03*
%TD*%
%TO.C,R159*%
X212190000Y-79500000D03*
X219810000Y-79500000D03*
%TD*%
%TO.C,C61*%
X223500000Y-106500000D03*
X223500000Y-104000000D03*
%TD*%
D24*
%TO.C,D5*%
X122500000Y-104810000D03*
D10*
X122500000Y-97190000D03*
%TD*%
%TO.C,R56*%
X175500000Y-80690000D03*
X175500000Y-88310000D03*
%TD*%
%TO.C,R45*%
X154500000Y-108500000D03*
X154500000Y-100880000D03*
%TD*%
%TO.C,R50*%
X115500000Y-58810000D03*
X115500000Y-51190000D03*
%TD*%
%TO.C,R11*%
X59500000Y-119500000D03*
X59500000Y-127120000D03*
%TD*%
%TO.C,R109*%
X241310000Y-117000000D03*
X233690000Y-117000000D03*
%TD*%
%TO.C,R65*%
X195000000Y-109810000D03*
X195000000Y-102190000D03*
%TD*%
%TO.C,R122*%
X226500000Y-53810000D03*
X226500000Y-46190000D03*
%TD*%
%TO.C,C27*%
X145500000Y-59500000D03*
X148000000Y-59500000D03*
%TD*%
%TO.C,R6*%
X55810000Y-117500000D03*
X48190000Y-117500000D03*
%TD*%
%TO.C,R91*%
X217190000Y-98000000D03*
X224810000Y-98000000D03*
%TD*%
%TO.C,R108*%
X233190000Y-120000000D03*
X240810000Y-120000000D03*
%TD*%
%TO.C,C44*%
X204500000Y-138000000D03*
X202000000Y-138000000D03*
%TD*%
D11*
%TO.C,RVDepth1*%
X175700000Y-66725000D03*
X185300000Y-66725000D03*
D12*
X178000000Y-74225000D03*
D13*
X180500000Y-74225000D03*
X183000000Y-74225000D03*
%TD*%
D10*
%TO.C,C12*%
X90500000Y-92750000D03*
X90500000Y-95250000D03*
%TD*%
%TO.C,R117*%
X244310000Y-67000000D03*
X236690000Y-67000000D03*
%TD*%
D20*
%TO.C,C20*%
X136000000Y-85000000D03*
D10*
X138500000Y-85000000D03*
%TD*%
D11*
%TO.C,RVRate_cho1*%
X213700000Y-52725000D03*
X223300000Y-52725000D03*
D12*
X216000000Y-60225000D03*
D13*
X218500000Y-60225000D03*
X221000000Y-60225000D03*
%TD*%
D11*
%TO.C,RVMix_del1*%
X261700000Y-69225000D03*
X271300000Y-69225000D03*
D12*
X264000000Y-76725000D03*
D13*
X266500000Y-76725000D03*
X269000000Y-76725000D03*
%TD*%
D10*
%TO.C,R120*%
X240500000Y-43690000D03*
X240500000Y-51310000D03*
%TD*%
%TO.C,C28*%
X161500000Y-101750000D03*
X161500000Y-104250000D03*
%TD*%
%TO.C,C17*%
X122000000Y-79500000D03*
X119500000Y-79500000D03*
%TD*%
D25*
%TO.C,D11*%
X148000000Y-90190000D03*
D10*
X148000000Y-97810000D03*
%TD*%
%TO.C,R5*%
X47190000Y-54000000D03*
X54810000Y-54000000D03*
%TD*%
%TO.C,R24*%
X113500000Y-118810000D03*
X113500000Y-111190000D03*
%TD*%
%TO.C,R47*%
X154500000Y-66690000D03*
X154500000Y-74310000D03*
%TD*%
%TO.C,C77*%
X246500000Y-128000000D03*
X244000000Y-128000000D03*
%TD*%
%TO.C,C48*%
X209500000Y-97500000D03*
X209500000Y-95000000D03*
%TD*%
%TO.C,R154*%
X265690000Y-117000000D03*
X273310000Y-117000000D03*
%TD*%
%TO.C,C85*%
X268000000Y-80500000D03*
X270500000Y-80500000D03*
%TD*%
%TO.C,C4*%
X50750000Y-79000000D03*
X53250000Y-79000000D03*
%TD*%
D19*
%TO.C,C99*%
X284500000Y-126500000D03*
D10*
X282000000Y-126500000D03*
%TD*%
%TO.C,C97*%
X287805000Y-134250000D03*
X287805000Y-136750000D03*
%TD*%
%TO.C,C69*%
X228250000Y-69500000D03*
X225750000Y-69500000D03*
%TD*%
%TO.C,C88*%
X275000000Y-107000000D03*
X275000000Y-109500000D03*
%TD*%
D19*
%TO.C,U5*%
X147305000Y-119310000D03*
D10*
X147305000Y-116770000D03*
X147305000Y-114230000D03*
X147305000Y-111690000D03*
X139685000Y-111690000D03*
X139685000Y-114230000D03*
X139685000Y-116770000D03*
X139685000Y-119310000D03*
%TD*%
%TO.C,R77*%
X209500000Y-125000000D03*
X209500000Y-132620000D03*
%TD*%
D19*
%TO.C,C98*%
X282500000Y-115500000D03*
D10*
X280000000Y-115500000D03*
%TD*%
%TO.C,C65*%
X240500000Y-102250000D03*
X240500000Y-104750000D03*
%TD*%
D19*
%TO.C,U15*%
X198805000Y-72810000D03*
D10*
X198805000Y-70270000D03*
X198805000Y-67730000D03*
X198805000Y-65190000D03*
X191185000Y-65190000D03*
X191185000Y-67730000D03*
X191185000Y-70270000D03*
X191185000Y-72810000D03*
%TD*%
%TO.C,R75*%
X195000000Y-126190000D03*
X195000000Y-133810000D03*
%TD*%
D20*
%TO.C,C9*%
X78000000Y-87000000D03*
D10*
X80500000Y-87000000D03*
%TD*%
D12*
%TO.C,D1*%
X48230000Y-110000000D03*
D13*
X50770000Y-110000000D03*
%TD*%
D10*
%TO.C,R36*%
X143190000Y-67500000D03*
X150810000Y-67500000D03*
%TD*%
D23*
%TO.C,SW4*%
X130420000Y-124920000D03*
X135500000Y-124920000D03*
X140580000Y-124920000D03*
X130420000Y-130000000D03*
X135500000Y-130000000D03*
X140580000Y-130000000D03*
X130420000Y-135080000D03*
X135500000Y-135080000D03*
X140580000Y-135080000D03*
%TD*%
D10*
%TO.C,R131*%
X262810000Y-113500000D03*
X255190000Y-113500000D03*
%TD*%
%TO.C,R69*%
X190500000Y-86810000D03*
X190500000Y-79190000D03*
%TD*%
D14*
%TO.C,Q8*%
X169770000Y-103640000D03*
D15*
X168500000Y-103640000D03*
X167230000Y-103640000D03*
%TD*%
D24*
%TO.C,C37*%
X202500000Y-99500000D03*
D10*
X202500000Y-97000000D03*
%TD*%
D20*
%TO.C,C101*%
X295000000Y-142500000D03*
D10*
X297500000Y-142500000D03*
%TD*%
%TO.C,R96*%
X181500000Y-60310000D03*
X181500000Y-52690000D03*
%TD*%
%TO.C,R132*%
X258000000Y-104310000D03*
X258000000Y-96690000D03*
%TD*%
D11*
%TO.C,RVRes1*%
X160700000Y-52225000D03*
X170300000Y-52225000D03*
D12*
X163000000Y-59725000D03*
D13*
X165500000Y-59725000D03*
X168000000Y-59725000D03*
%TD*%
D10*
%TO.C,R144*%
X277000000Y-96690000D03*
X277000000Y-104310000D03*
%TD*%
%TO.C,R14*%
X76190000Y-117500000D03*
X83810000Y-117500000D03*
%TD*%
D25*
%TO.C,C76*%
X247500000Y-109882323D03*
D10*
X247500000Y-112382323D03*
%TD*%
D25*
%TO.C,U12*%
X191310000Y-126190000D03*
D10*
X188770000Y-126190000D03*
X186230000Y-126190000D03*
X183690000Y-126190000D03*
X183690000Y-133810000D03*
X186230000Y-133810000D03*
X188770000Y-133810000D03*
X191310000Y-133810000D03*
%TD*%
%TO.C,R155*%
X297690000Y-107500000D03*
X305310000Y-107500000D03*
%TD*%
%TO.C,C52*%
X213750000Y-82500000D03*
X216250000Y-82500000D03*
%TD*%
%TO.C,C7*%
X75000000Y-112250000D03*
X75000000Y-109750000D03*
%TD*%
D16*
%TO.C,Q14*%
X194500000Y-59460000D03*
D17*
X194500000Y-60730000D03*
X194500000Y-62000000D03*
%TD*%
D10*
%TO.C,C42*%
X209000000Y-118500000D03*
X209000000Y-116000000D03*
%TD*%
%TO.C,R84*%
X211690000Y-118000000D03*
X219310000Y-118000000D03*
%TD*%
%TO.C,R64*%
X210810000Y-106000000D03*
X203190000Y-106000000D03*
%TD*%
%TO.C,R40*%
X158000000Y-108810000D03*
X158000000Y-101190000D03*
%TD*%
D26*
%TO.C,1RM-065*%
X120500000Y-124260000D03*
D27*
X123000000Y-129260000D03*
X125500000Y-124260000D03*
%TD*%
D10*
%TO.C,R7*%
X62690000Y-115500000D03*
X70310000Y-115500000D03*
%TD*%
%TO.C,R35*%
X158500000Y-77810000D03*
X158500000Y-70190000D03*
%TD*%
%TO.C,R26*%
X144000000Y-84500000D03*
X151620000Y-84500000D03*
%TD*%
%TO.C,R21*%
X126000000Y-97310000D03*
X126000000Y-89690000D03*
%TD*%
%TO.C,C90*%
X300805000Y-126560000D03*
X300805000Y-129060000D03*
%TD*%
D18*
%TO.C,REF\u002A\u002A*%
X29500000Y-40500000D03*
%TD*%
D23*
%TO.C,SW2*%
X75420000Y-124920000D03*
X80500000Y-124920000D03*
X85580000Y-124920000D03*
X75420000Y-130000000D03*
X80500000Y-130000000D03*
X85580000Y-130000000D03*
X75420000Y-135080000D03*
X80500000Y-135080000D03*
X85580000Y-135080000D03*
%TD*%
D10*
%TO.C,R55*%
X178190000Y-119500000D03*
X185810000Y-119500000D03*
%TD*%
%TO.C,R153*%
X294500000Y-107810000D03*
X294500000Y-100190000D03*
%TD*%
%TO.C,R123*%
X227000000Y-63810000D03*
X227000000Y-56190000D03*
%TD*%
%TO.C,R140*%
X276500000Y-94310000D03*
X276500000Y-86690000D03*
%TD*%
D11*
%TO.C,RVRepets1*%
X278700000Y-52225000D03*
X288300000Y-52225000D03*
D12*
X281000000Y-59725000D03*
D13*
X283500000Y-59725000D03*
X286000000Y-59725000D03*
%TD*%
D10*
%TO.C,C62*%
X225500000Y-114000000D03*
X225500000Y-111500000D03*
%TD*%
%TO.C,C40*%
X188750000Y-119500000D03*
X191250000Y-119500000D03*
%TD*%
%TO.C,R151*%
X290000000Y-81310000D03*
X290000000Y-73690000D03*
%TD*%
%TO.C,R139*%
X273500000Y-104310000D03*
X273500000Y-96690000D03*
%TD*%
%TO.C,R136*%
X230500000Y-120310000D03*
X230500000Y-112690000D03*
%TD*%
%TO.C,C19*%
X103750000Y-79500000D03*
X106250000Y-79500000D03*
%TD*%
%TO.C,R101*%
X222500000Y-116810000D03*
X222500000Y-109190000D03*
%TD*%
D25*
%TO.C,D19*%
X235000000Y-79190000D03*
D10*
X235000000Y-86810000D03*
%TD*%
D24*
%TO.C,U17*%
X237690000Y-77305000D03*
D10*
X240230000Y-77305000D03*
X242770000Y-77305000D03*
X245310000Y-77305000D03*
X245310000Y-69685000D03*
X242770000Y-69685000D03*
X240230000Y-69685000D03*
X237690000Y-69685000D03*
%TD*%
%TO.C,R115*%
X238000000Y-87620000D03*
X238000000Y-80000000D03*
%TD*%
%TO.C,R146*%
X287500000Y-108310000D03*
X287500000Y-100690000D03*
%TD*%
D25*
%TO.C,C35*%
X183000000Y-83000000D03*
D10*
X183000000Y-85500000D03*
%TD*%
%TO.C,C71*%
X254250000Y-98500000D03*
X251750000Y-98500000D03*
%TD*%
%TO.C,R127*%
X249690000Y-128000000D03*
X257310000Y-128000000D03*
%TD*%
D20*
%TO.C,U7*%
X143695000Y-71690000D03*
D10*
X143695000Y-74230000D03*
X143695000Y-76770000D03*
X143695000Y-79310000D03*
X151315000Y-79310000D03*
X151315000Y-76770000D03*
X151315000Y-74230000D03*
X151315000Y-71690000D03*
%TD*%
%TO.C,R114*%
X241000000Y-87620000D03*
X241000000Y-80000000D03*
%TD*%
%TO.C,C34*%
X167000000Y-87250000D03*
X167000000Y-84750000D03*
%TD*%
%TO.C,C46*%
X213500000Y-138000000D03*
X213500000Y-135500000D03*
%TD*%
%TO.C,C57*%
X178000000Y-56000000D03*
X178000000Y-53500000D03*
%TD*%
%TO.C,R126*%
X248190000Y-102500000D03*
X255810000Y-102500000D03*
%TD*%
%TO.C,R94*%
X202000000Y-63310000D03*
X202000000Y-55690000D03*
%TD*%
%TO.C,R31*%
X141500000Y-101190000D03*
X141500000Y-108810000D03*
%TD*%
%TO.C,R97*%
X187190000Y-56500000D03*
X194810000Y-56500000D03*
%TD*%
%TO.C,C18*%
X97500000Y-80250000D03*
X97500000Y-82750000D03*
%TD*%
D24*
%TO.C,C66*%
X235500000Y-95500000D03*
D10*
X235500000Y-93000000D03*
%TD*%
%TO.C,C82*%
X269000000Y-108500000D03*
X271500000Y-108500000D03*
%TD*%
D24*
%TO.C,C33*%
X180000000Y-96117677D03*
D10*
X180000000Y-93617677D03*
%TD*%
%TO.C,R18*%
X85690000Y-83000000D03*
X93310000Y-83000000D03*
%TD*%
D25*
%TO.C,D8*%
X110500000Y-97190000D03*
D10*
X110500000Y-104810000D03*
%TD*%
D20*
%TO.C,U4*%
X131195000Y-95690000D03*
D10*
X131195000Y-98230000D03*
X131195000Y-100770000D03*
X131195000Y-103310000D03*
X138815000Y-103310000D03*
X138815000Y-100770000D03*
X138815000Y-98230000D03*
X138815000Y-95690000D03*
%TD*%
%TO.C,R78*%
X180310000Y-141500000D03*
X172690000Y-141500000D03*
%TD*%
%TO.C,R95*%
X184500000Y-60310000D03*
X184500000Y-52690000D03*
%TD*%
D16*
%TO.C,U10*%
X160140000Y-123730000D03*
D17*
X160140000Y-125000000D03*
X160140000Y-126270000D03*
%TD*%
D20*
%TO.C,U21*%
X290000000Y-111420000D03*
D10*
X290000000Y-113960000D03*
X290000000Y-116500000D03*
X290000000Y-119040000D03*
X290000000Y-121580000D03*
X290000000Y-124120000D03*
X290000000Y-126660000D03*
X290000000Y-129200000D03*
X297620000Y-129200000D03*
X297620000Y-126660000D03*
X297620000Y-124120000D03*
X297620000Y-121580000D03*
X297620000Y-119040000D03*
X297620000Y-116500000D03*
X297620000Y-113960000D03*
X297620000Y-111420000D03*
%TD*%
D20*
%TO.C,U1*%
X74690000Y-96190000D03*
D10*
X74690000Y-98730000D03*
X74690000Y-101270000D03*
X74690000Y-103810000D03*
X82310000Y-103810000D03*
X82310000Y-101270000D03*
X82310000Y-98730000D03*
X82310000Y-96190000D03*
%TD*%
D16*
%TO.C,Q16*%
X244000000Y-101230000D03*
D17*
X244000000Y-102500000D03*
X244000000Y-103770000D03*
%TD*%
D19*
%TO.C,C100*%
X298500000Y-92000000D03*
D10*
X296000000Y-92000000D03*
%TD*%
%TO.C,C93*%
X290000000Y-70500000D03*
X290000000Y-68000000D03*
%TD*%
%TO.C,R148*%
X298115000Y-135310000D03*
X290495000Y-135310000D03*
%TD*%
%TO.C,C96*%
X284500000Y-134000000D03*
X282000000Y-134000000D03*
%TD*%
%TO.C,R38*%
X155500000Y-58810000D03*
X155500000Y-51190000D03*
%TD*%
%TO.C,C70*%
X237250000Y-64000000D03*
X239750000Y-64000000D03*
%TD*%
%TO.C,R52*%
X96500000Y-65310000D03*
X96500000Y-57690000D03*
%TD*%
D28*
%TO.C,Q5*%
X151460000Y-96500000D03*
D29*
X152730000Y-95230000D03*
X154000000Y-96500000D03*
%TD*%
D10*
%TO.C,R98*%
X174000000Y-48690000D03*
X174000000Y-56310000D03*
%TD*%
%TO.C,C67*%
X225750000Y-77000000D03*
X228250000Y-77000000D03*
%TD*%
%TO.C,R129*%
X255190000Y-107000000D03*
X262810000Y-107000000D03*
%TD*%
D11*
%TO.C,RV_In1*%
X58200000Y-51725000D03*
X67800000Y-51725000D03*
D12*
X60500000Y-59225000D03*
D13*
X63000000Y-59225000D03*
X65500000Y-59225000D03*
%TD*%
D10*
%TO.C,R59*%
X161690000Y-81000000D03*
X169310000Y-81000000D03*
%TD*%
%TO.C,R30*%
X127500000Y-100690000D03*
X127500000Y-108310000D03*
%TD*%
D24*
%TO.C,C95*%
X286500000Y-91000000D03*
D10*
X286500000Y-88500000D03*
%TD*%
D12*
%TO.C,D21*%
X234730000Y-112500000D03*
D13*
X237270000Y-112500000D03*
%TD*%
D23*
%TO.C,SW1*%
X45420000Y-124920000D03*
X50500000Y-124920000D03*
X55580000Y-124920000D03*
X45420000Y-130000000D03*
X50500000Y-130000000D03*
X55580000Y-130000000D03*
X45420000Y-135080000D03*
X50500000Y-135080000D03*
X55580000Y-135080000D03*
%TD*%
D30*
%TO.C,J4*%
X304650000Y-67700000D03*
D31*
X311000000Y-65570000D03*
X311000000Y-77000000D03*
D30*
X314200000Y-77000000D03*
X314200000Y-65570000D03*
X301500000Y-65570000D03*
X301500000Y-77000000D03*
%TD*%
D19*
%TO.C,U11*%
X173310000Y-98810000D03*
D10*
X173310000Y-96270000D03*
X173310000Y-93730000D03*
X173310000Y-91190000D03*
X165690000Y-91190000D03*
X165690000Y-93730000D03*
X165690000Y-96270000D03*
X165690000Y-98810000D03*
%TD*%
%TO.C,R82*%
X193690000Y-141000000D03*
X201310000Y-141000000D03*
%TD*%
%TO.C,R81*%
X203690000Y-141000000D03*
X211310000Y-141000000D03*
%TD*%
D24*
%TO.C,C75*%
X253500000Y-72500000D03*
D10*
X253500000Y-70000000D03*
%TD*%
%TO.C,R149*%
X298115000Y-132310000D03*
X290495000Y-132310000D03*
%TD*%
%TO.C,R128*%
X244190000Y-124500000D03*
X251810000Y-124500000D03*
%TD*%
D28*
%TO.C,Q4*%
X154000000Y-123000000D03*
D29*
X155270000Y-124270000D03*
X154000000Y-125540000D03*
%TD*%
D10*
%TO.C,C43*%
X209500000Y-112750000D03*
X209500000Y-110250000D03*
%TD*%
%TO.C,R46*%
X154500000Y-84810000D03*
X154500000Y-77190000D03*
%TD*%
D11*
%TO.C,RVRatef1*%
X160700000Y-66725000D03*
X170300000Y-66725000D03*
D12*
X163000000Y-74225000D03*
D13*
X165500000Y-74225000D03*
X168000000Y-74225000D03*
%TD*%
D10*
%TO.C,R156*%
X255190000Y-138500000D03*
X262810000Y-138500000D03*
%TD*%
%TO.C,R48*%
X125190000Y-62500000D03*
X132810000Y-62500000D03*
%TD*%
%TO.C,R83*%
X219810000Y-121500000D03*
X212190000Y-121500000D03*
%TD*%
%TO.C,C55*%
X199000000Y-62000000D03*
X199000000Y-59500000D03*
%TD*%
%TO.C,R73*%
X192190000Y-123000000D03*
X199810000Y-123000000D03*
%TD*%
%TO.C,R66*%
X199310000Y-114000000D03*
X191690000Y-114000000D03*
%TD*%
D19*
%TO.C,C50*%
X209500000Y-69500000D03*
D10*
X207000000Y-69500000D03*
%TD*%
%TO.C,R79*%
X183690000Y-140000000D03*
X191310000Y-140000000D03*
%TD*%
%TO.C,R54*%
X181690000Y-115000000D03*
X189310000Y-115000000D03*
%TD*%
%TO.C,C16*%
X103000000Y-62500000D03*
X105500000Y-62500000D03*
%TD*%
D21*
%TO.C,Q2*%
X50951961Y-71221961D03*
D22*
X52221961Y-72491961D03*
X53491961Y-71221961D03*
%TD*%
D14*
%TO.C,U22*%
X284500000Y-138000000D03*
D15*
X283230000Y-138000000D03*
X281960000Y-138000000D03*
%TD*%
D10*
%TO.C,R134*%
X266000000Y-106690000D03*
X266000000Y-114310000D03*
%TD*%
D30*
%TO.C,J2*%
X34100000Y-108655000D03*
D31*
X27750000Y-110785000D03*
X27750000Y-99355000D03*
D30*
X24550000Y-99355000D03*
X24550000Y-110785000D03*
X37250000Y-110785000D03*
X37250000Y-99355000D03*
%TD*%
D10*
%TO.C,R87*%
X220310000Y-102500000D03*
X212690000Y-102500000D03*
%TD*%
D16*
%TO.C,Q3*%
X162500000Y-84460000D03*
D17*
X162500000Y-85730000D03*
X162500000Y-87000000D03*
%TD*%
D10*
%TO.C,C78*%
X249500000Y-121250000D03*
X249500000Y-118750000D03*
%TD*%
D20*
%TO.C,U6*%
X150195000Y-111690000D03*
D10*
X150195000Y-114230000D03*
X150195000Y-116770000D03*
X150195000Y-119310000D03*
X157815000Y-119310000D03*
X157815000Y-116770000D03*
X157815000Y-114230000D03*
X157815000Y-111690000D03*
%TD*%
D26*
%TO.C,RM-065_3*%
X219500000Y-135760000D03*
D27*
X222000000Y-140760000D03*
X224500000Y-135760000D03*
%TD*%
D10*
%TO.C,R42*%
X158500000Y-88000000D03*
X158500000Y-80380000D03*
%TD*%
%TO.C,R113*%
X221190000Y-66500000D03*
X228810000Y-66500000D03*
%TD*%
%TO.C,C13*%
X102750000Y-100000000D03*
X105250000Y-100000000D03*
%TD*%
%TO.C,C53*%
X218250000Y-66000000D03*
X215750000Y-66000000D03*
%TD*%
%TO.C,R145*%
X284000000Y-108310000D03*
X284000000Y-100690000D03*
%TD*%
D24*
%TO.C,D7*%
X114500000Y-104810000D03*
D10*
X114500000Y-97190000D03*
%TD*%
%TO.C,R93*%
X218810000Y-63000000D03*
X211190000Y-63000000D03*
%TD*%
%TO.C,R51*%
X96500000Y-55310000D03*
X96500000Y-47690000D03*
%TD*%
D28*
%TO.C,Q6*%
X151500000Y-90000000D03*
D29*
X152770000Y-88730000D03*
X154040000Y-90000000D03*
%TD*%
D19*
%TO.C,C79*%
X259500000Y-120500000D03*
D10*
X257000000Y-120500000D03*
%TD*%
%TO.C,R28*%
X122810000Y-135500000D03*
X115190000Y-135500000D03*
%TD*%
D11*
%TO.C,RVVolume_dist1*%
X77200000Y-70725000D03*
X86800000Y-70725000D03*
D12*
X79500000Y-78225000D03*
D13*
X82000000Y-78225000D03*
X84500000Y-78225000D03*
%TD*%
D10*
%TO.C,R23*%
X113500000Y-76810000D03*
X113500000Y-69190000D03*
%TD*%
D24*
%TO.C,D22*%
X279000000Y-140810000D03*
D10*
X279000000Y-133190000D03*
%TD*%
%TO.C,R86*%
X213190000Y-105500000D03*
X220810000Y-105500000D03*
%TD*%
%TO.C,R90*%
X217500000Y-76810000D03*
X217500000Y-69190000D03*
%TD*%
D11*
%TO.C,RVDelay1*%
X263200000Y-52225000D03*
X272800000Y-52225000D03*
D12*
X265500000Y-59725000D03*
D13*
X268000000Y-59725000D03*
X270500000Y-59725000D03*
%TD*%
D23*
%TO.C,SW3*%
X101420000Y-124920000D03*
X106500000Y-124920000D03*
X111580000Y-124920000D03*
X101420000Y-130000000D03*
X106500000Y-130000000D03*
X111580000Y-130000000D03*
X101420000Y-135080000D03*
X106500000Y-135080000D03*
X111580000Y-135080000D03*
%TD*%
D32*
%TO.C,D12*%
X126500000Y-135500000D03*
X126500000Y-132000000D03*
%TD*%
D10*
%TO.C,R104*%
X227500000Y-116690000D03*
X227500000Y-124310000D03*
%TD*%
%TO.C,R121*%
X237810000Y-47000000D03*
X230190000Y-47000000D03*
%TD*%
D33*
%TO.C,D14*%
X165000000Y-117420000D03*
D34*
X165000000Y-127580000D03*
%TD*%
D10*
%TO.C,R33*%
X144000000Y-122190000D03*
X144000000Y-129810000D03*
%TD*%
%TO.C,R8*%
X57500000Y-114810000D03*
X57500000Y-107190000D03*
%TD*%
D28*
%TO.C,Q7*%
X154640000Y-61730000D03*
D29*
X155910000Y-63000000D03*
X154640000Y-64270000D03*
%TD*%
D12*
%TO.C,D13*%
X134230000Y-111000000D03*
D13*
X136770000Y-111000000D03*
%TD*%
D10*
%TO.C,R138*%
X267500000Y-104310000D03*
X267500000Y-96690000D03*
%TD*%
D11*
%TO.C,RVVolume_over1*%
X100700000Y-69225000D03*
X110300000Y-69225000D03*
D12*
X103000000Y-76725000D03*
D13*
X105500000Y-76725000D03*
X108000000Y-76725000D03*
%TD*%
D20*
%TO.C,C21*%
X121500000Y-115500000D03*
D10*
X124000000Y-115500000D03*
%TD*%
%TO.C,R3*%
X34690000Y-93000000D03*
X42310000Y-93000000D03*
%TD*%
%TO.C,R71*%
X166500000Y-130380000D03*
X166500000Y-138000000D03*
%TD*%
%TO.C,R110*%
X240500000Y-114310000D03*
X240500000Y-106690000D03*
%TD*%
D20*
%TO.C,U19*%
X229195000Y-50190000D03*
D10*
X229195000Y-52730000D03*
X229195000Y-55270000D03*
X229195000Y-57810000D03*
X236815000Y-57810000D03*
X236815000Y-55270000D03*
X236815000Y-52730000D03*
X236815000Y-50190000D03*
%TD*%
%TO.C,R49*%
X115380000Y-62500000D03*
X123000000Y-62500000D03*
%TD*%
%TO.C,R13*%
X68000000Y-126310000D03*
X68000000Y-118690000D03*
%TD*%
%TO.C,C30*%
X135750000Y-62500000D03*
X138250000Y-62500000D03*
%TD*%
%TO.C,R41*%
X162000000Y-97810000D03*
X162000000Y-90190000D03*
%TD*%
D11*
%TO.C,RV_Volumefuzz1*%
X59700000Y-70725000D03*
X69300000Y-70725000D03*
D12*
X62000000Y-78225000D03*
D13*
X64500000Y-78225000D03*
X67000000Y-78225000D03*
%TD*%
D10*
%TO.C,R58*%
X161380000Y-77500000D03*
X169000000Y-77500000D03*
%TD*%
D20*
%TO.C,C1*%
X50500000Y-87500000D03*
D10*
X53000000Y-87500000D03*
%TD*%
%TO.C,C45*%
X210250000Y-138000000D03*
X207750000Y-138000000D03*
%TD*%
D20*
%TO.C,D16*%
X212190000Y-111000000D03*
D10*
X219810000Y-111000000D03*
%TD*%
%TO.C,C59*%
X175000000Y-59500000D03*
X177500000Y-59500000D03*
%TD*%
D19*
%TO.C,C31*%
X155500000Y-133500000D03*
D10*
X153000000Y-133500000D03*
%TD*%
D12*
%TO.C,D4*%
X78730000Y-110500000D03*
D13*
X81270000Y-110500000D03*
%TD*%
D10*
%TO.C,R125*%
X240500000Y-53500000D03*
X240500000Y-61120000D03*
%TD*%
D16*
%TO.C,Q9*%
X199000000Y-105500000D03*
D17*
X199000000Y-106770000D03*
X199000000Y-108040000D03*
%TD*%
D10*
%TO.C,C80*%
X264500000Y-101500000D03*
X264500000Y-104000000D03*
%TD*%
%TO.C,R10*%
X84810000Y-63500000D03*
X77190000Y-63500000D03*
%TD*%
%TO.C,R112*%
X227810000Y-72500000D03*
X220190000Y-72500000D03*
%TD*%
%TO.C,R61*%
X175810000Y-117500000D03*
X168190000Y-117500000D03*
%TD*%
D16*
%TO.C,Q17*%
X245360000Y-121270000D03*
D17*
X245360000Y-120000000D03*
X245360000Y-118730000D03*
%TD*%
D10*
%TO.C,C8*%
X71250000Y-63500000D03*
X73750000Y-63500000D03*
%TD*%
%TO.C,R116*%
X234000000Y-63690000D03*
X234000000Y-71310000D03*
%TD*%
D19*
%TO.C,U18*%
X251305000Y-95620000D03*
D10*
X251305000Y-93080000D03*
X251305000Y-90540000D03*
X251305000Y-88000000D03*
X251305000Y-85460000D03*
X251305000Y-82920000D03*
X251305000Y-80380000D03*
X243685000Y-80380000D03*
X243685000Y-82920000D03*
X243685000Y-85460000D03*
X243685000Y-88000000D03*
X243685000Y-90540000D03*
X243685000Y-93080000D03*
X243685000Y-95620000D03*
%TD*%
%TO.C,R111*%
X232810000Y-80000000D03*
X225190000Y-80000000D03*
%TD*%
D20*
%TO.C,U13*%
X212190000Y-124690000D03*
D10*
X212190000Y-127230000D03*
X212190000Y-129770000D03*
X212190000Y-132310000D03*
X219810000Y-132310000D03*
X219810000Y-129770000D03*
X219810000Y-127230000D03*
X219810000Y-124690000D03*
%TD*%
%TO.C,C22*%
X117000000Y-125000000D03*
X117000000Y-127500000D03*
%TD*%
D20*
%TO.C,C11*%
X66000000Y-107000000D03*
D10*
X68500000Y-107000000D03*
%TD*%
%TO.C,C23*%
X118750000Y-108000000D03*
X121250000Y-108000000D03*
%TD*%
D24*
%TO.C,C73*%
X206500000Y-49000000D03*
D10*
X206500000Y-46500000D03*
%TD*%
%TO.C,C25*%
X147500000Y-122500000D03*
X150000000Y-122500000D03*
%TD*%
%TO.C,R147*%
X300805000Y-110500000D03*
X300805000Y-118120000D03*
%TD*%
D25*
%TO.C,C41*%
X202000000Y-129000000D03*
D10*
X202000000Y-131500000D03*
%TD*%
%TO.C,R29*%
X100190000Y-105500000D03*
X107810000Y-105500000D03*
%TD*%
D20*
%TO.C,D20*%
X241690000Y-98500000D03*
D10*
X249310000Y-98500000D03*
%TD*%
%TO.C,C14*%
X94750000Y-92500000D03*
X97250000Y-92500000D03*
%TD*%
%TO.C,C91*%
X300805000Y-134560000D03*
X300805000Y-132060000D03*
%TD*%
%TO.C,R22*%
X126000000Y-87310000D03*
X126000000Y-79690000D03*
%TD*%
D20*
%TO.C,C5*%
X50500000Y-101000000D03*
D10*
X53000000Y-101000000D03*
%TD*%
D11*
%TO.C,RVfuzz1*%
X34700000Y-52225000D03*
X44300000Y-52225000D03*
D12*
X37000000Y-59725000D03*
D13*
X39500000Y-59725000D03*
X42000000Y-59725000D03*
%TD*%
D10*
%TO.C,R150*%
X280500000Y-108310000D03*
X280500000Y-100690000D03*
%TD*%
%TO.C,R158*%
X214810000Y-76500000D03*
X207190000Y-76500000D03*
%TD*%
D26*
%TO.C,RM-065_2*%
X201760000Y-115000000D03*
D27*
X206760000Y-112500000D03*
X201760000Y-110000000D03*
%TD*%
D10*
%TO.C,R103*%
X225500000Y-132810000D03*
X225500000Y-125190000D03*
%TD*%
%TO.C,R19*%
X112000000Y-94620000D03*
X112000000Y-87000000D03*
%TD*%
%TO.C,R88*%
X212500000Y-93810000D03*
X212500000Y-86190000D03*
%TD*%
D11*
%TO.C,RVDist1*%
X77200000Y-52225000D03*
X86800000Y-52225000D03*
D12*
X79500000Y-59725000D03*
D13*
X82000000Y-59725000D03*
X84500000Y-59725000D03*
%TD*%
D10*
%TO.C,R102*%
X226500000Y-101380000D03*
X226500000Y-109000000D03*
%TD*%
D24*
%TO.C,C36*%
X191000000Y-95617677D03*
D10*
X191000000Y-93117677D03*
%TD*%
%TO.C,R160*%
X231000000Y-71310000D03*
X231000000Y-63690000D03*
%TD*%
%TO.C,C92*%
X282500000Y-98000000D03*
X280000000Y-98000000D03*
%TD*%
%TO.C,R107*%
X226690000Y-141000000D03*
X234310000Y-141000000D03*
%TD*%
%TO.C,R37*%
X143190000Y-63500000D03*
X150810000Y-63500000D03*
%TD*%
D25*
%TO.C,D15*%
X201500000Y-65690000D03*
D10*
X201500000Y-73310000D03*
%TD*%
%TO.C,R89*%
X209500000Y-86620000D03*
X209500000Y-79000000D03*
%TD*%
D35*
%TO.C,J3*%
X31500000Y-88500000D03*
D36*
X25200000Y-88500000D03*
D37*
X28600000Y-93300000D03*
%TD*%
D25*
%TO.C,D6*%
X118500000Y-97190000D03*
D10*
X118500000Y-104810000D03*
%TD*%
%TO.C,R76*%
X202190000Y-122000000D03*
X209810000Y-122000000D03*
%TD*%
%TO.C,R17*%
X107810000Y-95000000D03*
X100190000Y-95000000D03*
%TD*%
D24*
%TO.C,D3*%
X67500000Y-137310000D03*
D10*
X67500000Y-129690000D03*
%TD*%
%TO.C,R2*%
X59690000Y-86000000D03*
X67310000Y-86000000D03*
%TD*%
%TO.C,C15*%
X112000000Y-81500000D03*
X112000000Y-84000000D03*
%TD*%
D20*
%TO.C,C84*%
X278000000Y-79500000D03*
D10*
X280500000Y-79500000D03*
%TD*%
%TO.C,R15*%
X90190000Y-100500000D03*
X97810000Y-100500000D03*
%TD*%
D25*
%TO.C,D2*%
X63500000Y-129690000D03*
D10*
X63500000Y-137310000D03*
%TD*%
%TO.C,R27*%
X122810000Y-132000000D03*
X115190000Y-132000000D03*
%TD*%
D20*
%TO.C,C86*%
X278000000Y-68500000D03*
D10*
X280500000Y-68500000D03*
%TD*%
%TO.C,R92*%
X222500000Y-82810000D03*
X222500000Y-75190000D03*
%TD*%
%TO.C,C56*%
X190000000Y-60000000D03*
X187500000Y-60000000D03*
%TD*%
%TO.C,R62*%
X178500000Y-116810000D03*
X178500000Y-109190000D03*
%TD*%
D20*
%TO.C,U3*%
X115190000Y-82690000D03*
D10*
X115190000Y-85230000D03*
X115190000Y-87770000D03*
X115190000Y-90310000D03*
X122810000Y-90310000D03*
X122810000Y-87770000D03*
X122810000Y-85230000D03*
X122810000Y-82690000D03*
%TD*%
%TO.C,R34*%
X147500000Y-133500000D03*
X147500000Y-125880000D03*
%TD*%
D23*
%TO.C,SW5*%
X169500000Y-125340000D03*
X174580000Y-125340000D03*
X179660000Y-125340000D03*
X169500000Y-130420000D03*
X174580000Y-130420000D03*
X179660000Y-130420000D03*
X169500000Y-135500000D03*
X174580000Y-135500000D03*
X179660000Y-135500000D03*
%TD*%
D16*
%TO.C,Q12*%
X194640000Y-117230000D03*
D17*
X194640000Y-118500000D03*
X194640000Y-119770000D03*
%TD*%
D10*
%TO.C,R105*%
X228000000Y-98810000D03*
X228000000Y-91190000D03*
%TD*%
%TO.C,R135*%
X262310000Y-131500000D03*
X254690000Y-131500000D03*
%TD*%
%TO.C,R68*%
X197000000Y-76000000D03*
X204620000Y-76000000D03*
%TD*%
%TO.C,R70*%
X188500000Y-68690000D03*
X188500000Y-76310000D03*
%TD*%
%TO.C,R53*%
X131000000Y-108190000D03*
X131000000Y-115810000D03*
%TD*%
%TO.C,R44*%
X150000000Y-107810000D03*
X150000000Y-100190000D03*
%TD*%
%TO.C,R25*%
X109810000Y-117500000D03*
X102190000Y-117500000D03*
%TD*%
%TO.C,R60*%
X172690000Y-103000000D03*
X180310000Y-103000000D03*
%TD*%
%TO.C,C6*%
X72500000Y-124750000D03*
X72500000Y-122250000D03*
%TD*%
D12*
%TO.C,D18*%
X173000000Y-111500000D03*
D13*
X175540000Y-111500000D03*
%TD*%
D10*
%TO.C,R141*%
X271810000Y-84000000D03*
X264190000Y-84000000D03*
%TD*%
%TO.C,C26*%
X161500000Y-110000000D03*
X161500000Y-107500000D03*
%TD*%
%TO.C,R80*%
X191690000Y-137000000D03*
X199310000Y-137000000D03*
%TD*%
%TO.C,C60*%
X222500000Y-132500000D03*
X222500000Y-130000000D03*
%TD*%
%TO.C,R119*%
X262810000Y-80000000D03*
X255190000Y-80000000D03*
%TD*%
D25*
%TO.C,U8*%
X152310000Y-48695000D03*
D10*
X149770000Y-48695000D03*
X147230000Y-48695000D03*
X144690000Y-48695000D03*
X144690000Y-56315000D03*
X147230000Y-56315000D03*
X149770000Y-56315000D03*
X152310000Y-56315000D03*
%TD*%
D25*
%TO.C,U20*%
X273310000Y-86690000D03*
D10*
X270770000Y-86690000D03*
X268230000Y-86690000D03*
X265690000Y-86690000D03*
X265690000Y-94310000D03*
X268230000Y-94310000D03*
X270770000Y-94310000D03*
X273310000Y-94310000D03*
%TD*%
D11*
%TO.C,RVSpeed1*%
X131200000Y-52225000D03*
X140800000Y-52225000D03*
D12*
X133500000Y-59725000D03*
D13*
X136000000Y-59725000D03*
X138500000Y-59725000D03*
%TD*%
D19*
%TO.C,C81*%
X249617677Y-137000000D03*
D10*
X247117677Y-137000000D03*
%TD*%
%TO.C,R118*%
X242690000Y-64000000D03*
X250310000Y-64000000D03*
%TD*%
D24*
%TO.C,C51*%
X219500000Y-91000000D03*
D10*
X219500000Y-88500000D03*
%TD*%
%TO.C,C68*%
X220500000Y-69500000D03*
X223000000Y-69500000D03*
%TD*%
%TO.C,C3*%
X36750000Y-84000000D03*
X39250000Y-84000000D03*
%TD*%
D11*
%TO.C,RVdepth_cho1*%
X244200000Y-52725000D03*
X253800000Y-52725000D03*
D12*
X246500000Y-60225000D03*
D13*
X249000000Y-60225000D03*
X251500000Y-60225000D03*
%TD*%
D10*
%TO.C,R85*%
X212190000Y-114500000D03*
X219810000Y-114500000D03*
%TD*%
%TO.C,C39*%
X188500000Y-63250000D03*
X188500000Y-65750000D03*
%TD*%
D20*
%TO.C,C2*%
X64000000Y-93500000D03*
D10*
X66500000Y-93500000D03*
%TD*%
%TO.C,R152*%
X287000000Y-71310000D03*
X287000000Y-63690000D03*
%TD*%
D20*
%TO.C,U9*%
X119695000Y-49190000D03*
D10*
X119695000Y-51730000D03*
X119695000Y-54270000D03*
X119695000Y-56810000D03*
X127315000Y-56810000D03*
X127315000Y-54270000D03*
X127315000Y-51730000D03*
X127315000Y-49190000D03*
%TD*%
%TO.C,R99*%
X216500000Y-135190000D03*
X216500000Y-142810000D03*
%TD*%
D26*
%TO.C,RV14*%
X165555000Y-109575000D03*
D27*
X168055000Y-114575000D03*
X170555000Y-109575000D03*
%TD*%
D26*
%TO.C,RM-065_4*%
X226760000Y-88000000D03*
D27*
X231760000Y-85500000D03*
X226760000Y-83000000D03*
%TD*%
D10*
%TO.C,R1*%
X34690000Y-89000000D03*
X42310000Y-89000000D03*
%TD*%
D18*
%TO.C,REF\u002A\u002A*%
X311000000Y-145000000D03*
%TD*%
D10*
%TO.C,C64*%
X228500000Y-132750000D03*
X228500000Y-135250000D03*
%TD*%
%TO.C,C83*%
X270500000Y-99500000D03*
X270500000Y-97000000D03*
%TD*%
D33*
%TO.C,D10*%
X143500000Y-88420000D03*
D34*
X143500000Y-98580000D03*
%TD*%
D18*
%TO.C,REF\u002A\u002A*%
X31500000Y-143000000D03*
%TD*%
D10*
%TO.C,R157*%
X292190000Y-84000000D03*
X299810000Y-84000000D03*
%TD*%
%TO.C,C38*%
X191500000Y-76000000D03*
X194000000Y-76000000D03*
%TD*%
%TO.C,C87*%
X290500000Y-98000000D03*
X290500000Y-100500000D03*
%TD*%
%TO.C,C47*%
X209500000Y-103000000D03*
X209500000Y-100500000D03*
%TD*%
%TO.C,C63*%
X228500000Y-127000000D03*
X228500000Y-129500000D03*
%TD*%
D24*
%TO.C,C32*%
X187500000Y-107000000D03*
D10*
X187500000Y-104500000D03*
%TD*%
D23*
%TO.C,SW6*%
X230920000Y-125420000D03*
X236000000Y-125420000D03*
X241080000Y-125420000D03*
X230920000Y-130500000D03*
X236000000Y-130500000D03*
X241080000Y-130500000D03*
X230920000Y-135580000D03*
X236000000Y-135580000D03*
X241080000Y-135580000D03*
%TD*%
D11*
%TO.C,RVTone_ov1*%
X116700000Y-69225000D03*
X126300000Y-69225000D03*
D12*
X119000000Y-76725000D03*
D13*
X121500000Y-76725000D03*
X124000000Y-76725000D03*
%TD*%
D19*
%TO.C,C72*%
X259500000Y-88000000D03*
D10*
X257000000Y-88000000D03*
%TD*%
%TO.C,R143*%
X286500000Y-73690000D03*
X286500000Y-81310000D03*
%TD*%
D16*
%TO.C,Q11*%
X195360000Y-81770000D03*
D17*
X195360000Y-80500000D03*
X195360000Y-79230000D03*
%TD*%
D24*
%TO.C,U16*%
X229690000Y-108805000D03*
D10*
X232230000Y-108805000D03*
X234770000Y-108805000D03*
X237310000Y-108805000D03*
X237310000Y-101185000D03*
X234770000Y-101185000D03*
X232230000Y-101185000D03*
X229690000Y-101185000D03*
%TD*%
%TO.C,R43*%
X144000000Y-132690000D03*
X144000000Y-140310000D03*
%TD*%
D26*
%TO.C,RV16*%
X194555000Y-49075000D03*
D27*
X197055000Y-54075000D03*
X199555000Y-49075000D03*
%TD*%
D10*
%TO.C,R9*%
X59690000Y-82500000D03*
X67310000Y-82500000D03*
%TD*%
%TO.C,C54*%
X208500000Y-62000000D03*
X206000000Y-62000000D03*
%TD*%
D20*
%TO.C,C29*%
X133500000Y-71500000D03*
D10*
X136000000Y-71500000D03*
%TD*%
D20*
%TO.C,U2*%
X100690000Y-82690000D03*
D10*
X100690000Y-85230000D03*
X100690000Y-87770000D03*
X100690000Y-90310000D03*
X108310000Y-90310000D03*
X108310000Y-87770000D03*
X108310000Y-85230000D03*
X108310000Y-82690000D03*
%TD*%
%TO.C,R4*%
X47190000Y-49000000D03*
X54810000Y-49000000D03*
%TD*%
M02*
